<svg width="524" height="417" viewBox="0 0 524 417" fill="none" xmlns="http://www.w3.org/2000/svg">
    <path
        d="M76.7364 376.185C179.052 429.423 344.948 429.423 447.264 376.185C549.579 322.947 549.579 236.629 447.264 183.379C344.948 130.129 179.098 130.141 76.7364 183.379C-25.6256 236.617 -25.532 322.947 76.7364 376.185Z"
        fill="#F5F5F5" />
    <path d="M48.2154 288.876L14.9565 269.755V198.701L48.2154 217.834V288.876Z" fill="#E0E0E0" />
    <path d="M48.2153 217.834L95.7347 190.51V261.552L48.2153 288.876V217.834Z" fill="#EBEBEB" />
    <path d="M95.7348 190.51L48.2154 217.834L14.9565 198.701L62.4759 171.377L95.7348 190.51Z" fill="#F5F5F5" />
    <path d="M52.9768 220.56L90.9853 198.701L91.8627 199.202V225.524L53.8425 247.383L52.9651 246.882L52.9768 220.56Z"
        fill="#E0E0E0" />
    <path d="M53.8425 221.073L91.8627 199.202V225.524L53.8425 247.383V221.073Z" fill="#F5F5F5" />
    <path
        d="M68.7464 216.96L75.2157 213.243C76.0463 212.753 76.7248 212.975 76.7248 213.732C76.6645 214.196 76.4968 214.64 76.2349 215.028C75.973 215.416 75.6241 215.738 75.2157 215.969L68.7464 219.686C67.9041 220.176 67.2256 219.954 67.2256 219.197C67.2862 218.732 67.4554 218.287 67.7194 217.899C67.9835 217.51 68.3352 217.189 68.7464 216.96Z"
        fill="#E0E0E0" />
    <path d="M52.0994 253.862L90.1078 232.002V258.324L90.9852 258.825L52.9651 280.685L52.0994 280.184V253.862Z"
        fill="#E0E0E0" />
    <path d="M52.9651 254.363L90.9853 232.504V258.826L52.9651 280.685V254.363Z" fill="#F5F5F5" />
    <path
        d="M67.8691 250.262L74.3968 246.556C75.2391 246.067 75.9176 246.288 75.9176 247.046C75.857 247.511 75.6879 247.956 75.4238 248.344C75.1597 248.732 74.808 249.054 74.3968 249.283L67.9275 253C67.0853 253.489 66.4067 253.268 66.4067 252.51C66.4593 252.048 66.6187 251.605 66.8725 251.215C67.1262 250.825 67.4673 250.498 67.8691 250.262Z"
        fill="#E0E0E0" />
    <path d="M48.2154 213.732L14.9565 194.6V123.557L48.2154 142.678V213.732Z" fill="#E0E0E0" />
    <path d="M48.2153 142.678L95.7347 115.354V186.408L48.2153 213.732V142.678Z" fill="#EBEBEB" />
    <path d="M95.7348 115.354L48.2154 142.678L14.9565 123.557L62.4759 96.2332L95.7348 115.354Z" fill="#F5F5F5" />
    <path d="M52.9651 145.416L90.9853 123.557L91.8627 124.058V150.38L53.8425 172.239L52.9651 171.727V145.416Z"
        fill="#E0E0E0" />
    <path
        d="M68.7464 141.804L75.204 138.087C76.0463 137.609 76.7248 137.831 76.7248 138.588C76.6624 139.053 76.4925 139.497 76.2286 139.885C75.9647 140.273 75.614 140.595 75.204 140.825L68.7464 144.542C67.9041 145.02 67.2256 144.81 67.2256 144.053C67.2872 143.587 67.4565 143.141 67.7204 142.75C67.9843 142.36 68.3355 142.036 68.7464 141.804Z"
        fill="#E0E0E0" />
    <path d="M52.0994 178.718L90.1078 156.859V183.169L90.9852 183.67L52.9651 205.529L52.0994 205.028V178.718Z"
        fill="#E0E0E0" />
    <path d="M52.9651 179.219L90.9853 157.36V183.67L52.9651 205.529V179.219Z" fill="#F5F5F5" />
    <path
        d="M67.8689 175.106L74.3967 171.389C75.2273 170.911 75.9175 171.132 75.9175 171.89C75.8517 172.353 75.6805 172.796 75.4169 173.184C75.1534 173.571 74.8044 173.894 74.3967 174.127L67.8689 177.809C67.0267 178.287 66.3481 178.065 66.3481 177.32C66.4148 176.859 66.5866 176.42 66.8502 176.037C67.1139 175.653 67.4624 175.334 67.8689 175.106Z"
        fill="#E0E0E0" />
    <path d="M52.9651 145.416L90.9853 123.557V149.867L52.9651 171.727V145.416Z" fill="#E0E0E0" />
    <path d="M109.995 136.561L89.1836 124.594V147.782L109.995 159.737V136.561Z" fill="#E0E0E0" />
    <path d="M67.2256 175.479V142.678L75.3794 137.971L76.7248 139.952L100.484 126.284V156.346L67.2256 175.479Z"
        fill="#EBEBEB" />
    <path d="M67.2256 175.479L69.6004 146.78L102.859 127.659L100.484 156.346L67.2256 175.479Z" fill="#F5F5F5" />
    <path d="M71.9752 158.42L53.8425 147.992V171.179L71.9752 181.596V158.42Z" fill="#EBEBEB" />
    <path d="M71.9751 156.346L109.995 134.487V160.797L71.9751 182.656V156.346Z" fill="#F5F5F5" />
    <path
        d="M86.879 152.233L93.3365 148.516C94.1788 148.038 94.8573 148.259 94.8573 149.017C94.7941 149.481 94.6239 149.925 94.3601 150.313C94.0963 150.701 93.746 151.023 93.3365 151.254L86.879 154.971C86.0367 155.449 85.3582 155.227 85.3582 154.482C85.4197 154.015 85.5891 153.569 85.853 153.179C86.1169 152.789 86.4681 152.465 86.879 152.233Z"
        fill="#E0E0E0" />
    <path d="M71.9751 156.346L70.7117 155.624V181.934L71.9751 182.656V156.346Z" fill="#E0E0E0" />
    <path d="M70.7117 155.624L108.72 133.753L109.995 134.487L71.9751 156.346L70.7117 155.624Z" fill="#EBEBEB" />
    <path d="M441.145 245.834L407.875 226.701V155.659L441.145 174.78V245.834Z" fill="#E0E0E0" />
    <path d="M441.145 174.78L488.665 147.456V218.51L441.145 245.834V174.78Z" fill="#EBEBEB" />
    <path d="M488.664 147.455L441.145 174.779L407.875 155.658L455.406 128.323L488.664 147.455Z" fill="#F5F5F5" />
    <path d="M445.895 177.518L483.915 155.659L484.792 156.16L484.781 182.47L446.772 204.329L445.895 203.828V177.518Z"
        fill="#E0E0E0" />
    <path d="M446.772 178.019L484.792 156.16L484.781 182.47L446.772 204.329V178.019Z" fill="#F5F5F5" />
    <path
        d="M461.676 173.906L468.134 170.189C468.976 169.711 469.654 169.932 469.654 170.678C469.593 171.144 469.424 171.59 469.16 171.981C468.896 172.371 468.545 172.695 468.134 172.927L461.676 176.644C460.834 177.122 460.155 176.9 460.155 176.154C460.217 175.688 460.386 175.242 460.65 174.852C460.914 174.462 461.265 174.138 461.676 173.906Z"
        fill="#E0E0E0" />
    <path d="M445.018 210.819L483.038 188.948V215.27L483.915 215.771L445.895 237.63L445.018 237.129V210.819Z"
        fill="#E0E0E0" />
    <path d="M445.895 211.32L483.915 189.461V215.771L445.895 237.63V211.32Z" fill="#F5F5F5" />
    <path
        d="M460.799 207.207L467.268 203.49C468.098 203.012 468.777 203.234 468.777 203.979C468.715 204.444 468.547 204.889 468.285 205.279C468.023 205.669 467.675 205.993 467.268 206.228L460.799 209.945C459.956 210.423 459.278 210.202 459.278 209.444C459.341 208.98 459.511 208.536 459.775 208.148C460.039 207.76 460.389 207.438 460.799 207.207Z"
        fill="#E0E0E0" />
    <path d="M124.256 146.616V326.967L309.584 220.397L309.572 56.4414L171.775 135.687L167.014 122.019L124.256 146.616Z"
        fill="url(#paint0_linear_12_2881)" />
    <path opacity="0.7"
        d="M124.256 146.616V326.967L309.584 220.397L309.572 56.4414L171.775 135.687L167.014 122.019L124.256 146.616Z"
        fill="black" />
    <path d="M124.256 326.967L133.755 163.011L319.083 56.4414L309.584 220.397L124.256 326.967Z" fill="#E0E0E0" />
    <path d="M124.256 326.967L138.505 165.749L323.833 59.168L309.584 220.397L124.256 326.967Z"
        fill="url(#paint1_linear_12_2881)" />
    <path opacity="0.7" d="M124.256 326.967L138.505 165.749L323.833 59.168L309.584 220.397L124.256 326.967Z"
        fill="black" />
    <path d="M152.765 163.011V343.373L338.093 236.792V72.8359L200.285 152.081L195.535 138.414L152.765 163.011Z"
        fill="url(#paint2_linear_12_2881)" />
    <path opacity="0.5"
        d="M152.765 163.011V343.373L338.093 236.792V72.8359L200.285 152.081L195.535 138.414L152.765 163.011Z"
        fill="black" />
    <path d="M152.765 343.373L162.264 179.405L347.592 72.8359L338.093 236.792L152.765 343.373Z" fill="#E0E0E0" />
    <path d="M152.765 343.373L167.014 182.144L352.342 75.5625L338.093 236.792L152.765 343.373Z"
        fill="url(#paint3_linear_12_2881)" />
    <path opacity="0.5" d="M152.765 343.373L167.014 182.144L352.342 75.5625L338.093 236.792L152.765 343.373Z"
        fill="black" />
    <path d="M309.537 400.759C276.266 381.626 245.406 360.827 231.321 336.428L274.137 311.807L309.537 400.759Z"
        fill="#E0E0E0" />
    <path d="M186.024 182.144V362.494L371.352 255.924V91.9685L233.543 171.214L228.794 157.546L186.024 182.144Z"
        fill="url(#paint4_linear_12_2881)" />
    <path opacity="0.2"
        d="M186.024 182.144V362.494L371.352 255.924V91.9685L233.543 171.214L228.794 157.546L186.024 182.144Z"
        fill="black" />
    <path
        d="M239.416 235.463C238.948 235.463 238.878 234.927 238.878 234.613V80.8057C238.915 80.209 239.091 79.6292 239.392 79.1116C239.692 78.5941 240.109 78.1529 240.609 77.8228L374.37 0.919347C374.553 0.805547 374.763 0.741282 374.978 0.73291C375.446 0.73291 375.517 1.26891 375.517 1.58351V155.39C375.48 155.989 375.304 156.571 375.004 157.09C374.704 157.61 374.286 158.053 373.785 158.385L240.024 235.288C239.84 235.397 239.63 235.457 239.416 235.463Z"
        fill="white" />
    <path
        d="M374.908 1.26897C374.918 1.35416 374.918 1.44013 374.908 1.52532V155.332C374.87 155.828 374.721 156.309 374.472 156.741C374.223 157.172 373.88 157.543 373.469 157.826L239.709 234.729L239.475 234.834C239.459 234.749 239.459 234.662 239.475 234.578V80.7708C239.515 80.2767 239.665 79.7978 239.914 79.3685C240.162 78.9393 240.504 78.5705 240.913 78.2889L374.674 1.38549C374.748 1.33409 374.832 1.29839 374.92 1.28062M374.99 0.115421C374.672 0.124867 374.361 0.217269 374.089 0.383421L240.329 77.2868C239.741 77.6716 239.251 78.1882 238.9 78.7952C238.548 79.4022 238.344 80.0828 238.305 80.7824V234.589C238.305 235.498 238.761 236.022 239.475 236.022C239.793 236.014 240.104 235.922 240.375 235.755L374.136 158.851C374.727 158.469 375.218 157.953 375.57 157.346C375.922 156.738 376.124 156.056 376.16 155.355V1.54862C376.16 0.639766 375.704 0.103768 374.99 0.115421Z"
        fill="url(#paint5_linear_12_2881)" />
    <path opacity="0.7"
        d="M374.908 1.26897C374.918 1.35416 374.918 1.44013 374.908 1.52532V155.332C374.87 155.828 374.721 156.309 374.472 156.741C374.223 157.172 373.88 157.543 373.469 157.826L239.709 234.729L239.475 234.834C239.459 234.749 239.459 234.662 239.475 234.578V80.7708C239.515 80.2767 239.665 79.7978 239.914 79.3685C240.162 78.9393 240.504 78.5705 240.913 78.2889L374.674 1.38549C374.748 1.33409 374.832 1.29839 374.92 1.28062M374.99 0.115421C374.672 0.124867 374.361 0.217269 374.089 0.383421L240.329 77.2868C239.741 77.6716 239.251 78.1882 238.9 78.7952C238.548 79.4022 238.344 80.0828 238.305 80.7824V234.589C238.305 235.498 238.761 236.022 239.475 236.022C239.793 236.014 240.104 235.922 240.375 235.755L374.136 158.851C374.727 158.469 375.218 157.953 375.57 157.346C375.922 156.738 376.124 156.056 376.16 155.355V1.54862C376.16 0.639766 375.704 0.103768 374.99 0.115421Z"
        fill="white" />
    <path d="M252.553 86.6434L300.073 59.3193V113.967L252.553 141.291V86.6434Z" fill="url(#paint6_linear_12_2881)" />
    <path opacity="0.8" d="M252.553 86.6434L300.073 59.3193V113.967L252.553 141.291V86.6434Z" fill="white" />
    <path
        d="M292.948 72.9407V89.37L291.451 90.1973V85.1753C291.451 82.4021 289.193 81.4583 286.385 83.0663L266.252 94.6601C263.456 96.268 261.187 99.8219 261.187 102.595V107.617L259.701 108.503V92.1083L292.948 72.9407Z"
        fill="white" />
    <path
        d="M283.8 114.771C281.367 116.17 279.39 114.702 279.39 111.474V85.1753L273.272 88.4845V114.993C273.272 118.209 271.295 121.984 268.861 123.347L264.439 125.888V127.635L288.199 113.967V112.231L283.8 114.771Z"
        fill="white" />
    <path
        d="M309.537 56.6278C309.537 58.1425 310.906 58.5737 312.578 57.6182L358.811 30.9933C359.631 30.5302 360.333 29.8842 360.861 29.1059C361.388 28.3276 361.728 27.4382 361.853 26.5073C361.853 25.0042 360.484 24.5614 358.811 25.5285L312.614 52.0951C311.78 52.5573 311.067 53.2085 310.532 53.9959C309.998 54.7833 309.657 55.6848 309.537 56.6278Z"
        fill="#455A64" />
    <path
        d="M309.537 72.9406C309.537 74.4554 310.906 74.8982 312.578 73.931L358.776 47.3644C359.596 46.9013 360.298 46.2553 360.825 45.477C361.353 44.6987 361.693 43.8092 361.818 42.8784C361.818 41.3753 360.449 40.9325 358.776 41.8996L312.578 68.4662C311.76 68.9282 311.059 69.5724 310.531 70.3485C310.004 71.1247 309.663 72.0118 309.537 72.9406Z"
        fill="#455A64" />
    <path
        d="M309.537 89.3698C309.537 90.8845 310.906 91.3273 312.578 90.3602L358.776 63.7936C359.595 63.3316 360.295 62.6874 360.823 61.9113C361.351 61.1351 361.691 60.248 361.818 59.3192C361.818 57.8044 360.449 57.3616 358.776 58.3287L312.578 84.8954C311.76 85.3573 311.059 86.0015 310.531 86.7777C310.004 87.5538 309.663 88.441 309.537 89.3698Z"
        fill="#455A64" />
    <path
        d="M309.537 105.765C309.537 107.279 310.906 107.722 312.578 106.755L358.776 80.1883C359.595 79.7264 360.295 79.0822 360.823 78.306C361.351 77.5299 361.691 76.6428 361.818 75.714C361.818 74.1992 360.449 73.7564 358.776 74.7235L312.578 101.29C311.76 101.752 311.059 102.396 310.531 103.172C310.004 103.949 309.663 104.836 309.537 105.765Z"
        fill="#455A64" />
    <path
        d="M252.553 154.959C252.553 156.474 253.911 156.917 255.595 155.95L358.811 96.5242C359.631 96.0637 360.333 95.4199 360.86 94.6435C361.388 93.867 361.728 92.9792 361.853 92.0498C361.853 90.5351 360.484 90.104 358.811 91.0594L255.595 150.485C254.774 150.945 254.073 151.588 253.545 152.365C253.017 153.141 252.677 154.03 252.553 154.959Z"
        fill="#455A64" />
    <path
        d="M252.553 171.354C252.553 172.868 253.911 173.311 255.595 172.344L358.811 112.989C359.631 112.526 360.333 111.88 360.861 111.101C361.388 110.323 361.728 109.434 361.853 108.503C361.853 107 360.484 106.557 358.811 107.524L255.595 166.879C254.774 167.339 254.073 167.983 253.545 168.759C253.017 169.536 252.677 170.424 252.553 171.354Z"
        fill="#455A64" />
    <path
        d="M252.553 187.76C252.553 189.263 253.911 189.706 255.595 188.738L358.811 129.383C359.631 128.92 360.333 128.274 360.861 127.496C361.388 126.717 361.728 125.828 361.853 124.897C361.853 123.394 360.484 122.951 358.811 123.918L255.595 183.274C254.773 183.735 254.07 184.38 253.542 185.159C253.014 185.937 252.676 186.828 252.553 187.76Z"
        fill="#455A64" />
    <path d="M186.024 362.494L219.283 217.671L404.611 111.089L371.352 255.924L186.024 362.494Z"
        fill="url(#paint7_linear_12_2881)" />
    <path d="M231.367 229.008V336.428L274.137 311.83V204.422L231.367 229.008Z" fill="url(#paint8_linear_12_2881)" />
    <path opacity="0.2" d="M231.367 229.008V336.428L274.137 311.83V204.422L231.367 229.008Z" fill="black" />
    <path
        d="M309.619 400.06C305.98 397.357 270.908 370.662 253.08 332.478C234.105 291.882 234.128 244.528 234.128 226.712V226.153L361.268 153.048C361.268 171.027 361.268 218.451 380.325 259.187C397.744 296.473 431.47 322.83 436.817 326.862L309.619 400.06Z"
        fill="white" />
    <path
        d="M360.683 154.097C360.683 172.834 361.045 219.349 379.798 259.478C396.632 295.483 428.639 321.374 435.764 326.839L309.654 399.361C304.729 395.667 270.979 369.415 253.618 332.28C234.666 291.801 234.666 244.54 234.666 226.748V226.526L360.636 154.086M361.806 152.07L233.497 225.862C233.497 242.629 233.146 291.347 252.507 332.769C271.563 373.423 309.537 400.759 309.537 400.759L437.881 326.955C437.881 326.955 399.861 299.619 380.863 258.966C361.49 217.543 361.853 168.825 361.853 152.058L361.806 152.07Z"
        fill="url(#paint9_linear_12_2881)" />
    <path opacity="0.7"
        d="M360.683 154.097C360.683 172.834 361.045 219.349 379.798 259.478C396.632 295.483 428.639 321.374 435.764 326.839L309.654 399.361C304.729 395.667 270.979 369.415 253.618 332.28C234.666 291.801 234.666 244.54 234.666 226.748V226.526L360.636 154.086M361.806 152.07L233.497 225.862C233.497 242.629 233.146 291.347 252.507 332.769C271.563 373.423 309.537 400.759 309.537 400.759L437.881 326.955C437.881 326.955 399.861 299.619 380.863 258.966C361.49 217.543 361.853 168.825 361.853 152.058L361.806 152.07Z"
        fill="white" />
    <path
        d="M347.335 176.818L306.764 200.122C305.952 200.568 305.26 201.202 304.747 201.971C304.234 202.739 303.914 203.62 303.816 204.539C303.875 206.018 305.29 206.438 306.963 205.471L347.545 182.167C348.348 181.726 349.033 181.1 349.544 180.342C350.054 179.584 350.376 178.716 350.482 177.809C350.412 176.271 349.019 175.851 347.335 176.818Z"
        fill="#455A64" />
    <path
        d="M348.201 192.724L307.63 216.028C306.828 216.458 306.147 217.082 305.652 217.844C305.157 218.606 304.864 219.48 304.799 220.386C304.928 221.819 306.402 222.203 308.075 221.236L348.657 197.932C349.455 197.504 350.131 196.88 350.62 196.12C351.109 195.359 351.396 194.487 351.453 193.586C351.336 192.141 349.885 191.791 348.201 192.724Z"
        fill="#455A64" />
    <path
        d="M349.827 208.186L309.244 231.49C307.572 232.457 306.355 234.379 306.554 235.766C306.753 237.153 308.285 237.514 309.97 236.547L350.552 213.243C352.225 212.276 353.418 210.365 353.207 208.978C352.997 207.591 351.499 207.219 349.827 208.186Z"
        fill="#455A64" />
    <path
        d="M352.26 223.182L311.678 246.486C310.005 247.453 308.847 249.341 309.127 250.692C309.408 252.044 310.999 252.347 312.637 251.38L353.207 228.076C354.892 227.109 356.015 225.233 355.734 223.881C355.454 222.529 353.991 222.215 352.26 223.182Z"
        fill="#455A64" />
    <path
        d="M355.559 237.677L314.977 260.981C313.304 261.948 312.216 263.789 312.637 265.082C313.058 266.376 314.661 266.667 316.334 265.7L356.916 242.396C358.6 241.429 359.653 239.599 359.256 238.294C358.858 236.989 357.232 236.71 355.559 237.677Z"
        fill="#455A64" />
    <path
        d="M359.841 251.648L260.941 308.522C259.268 309.489 258.251 311.283 258.707 312.53C259.163 313.777 260.906 314.01 262.579 313.043L361.478 256.169C363.163 255.202 364.134 253.419 363.678 252.161C363.221 250.902 361.455 250.681 359.841 251.648Z"
        fill="#455A64" />
    <path
        d="M365.046 264.989L266.159 321.863C264.474 322.83 263.55 324.578 264.111 325.766C264.673 326.955 266.451 327.141 268.159 326.174L367.058 269.301C368.743 268.334 369.644 266.586 369.082 265.397C368.521 264.209 366.731 264.034 365.046 264.989Z"
        fill="#455A64" />
    <path
        d="M371.539 277.702L272.64 334.575C270.955 335.542 270.125 337.244 270.791 338.374C271.458 339.504 273.365 339.621 275.05 338.653L373.879 281.78C375.552 280.824 376.359 279.135 375.692 278.005C375.025 276.874 373.177 276.735 371.539 277.702Z"
        fill="#455A64" />
    <path
        d="M379.108 289.727L280.22 346.589C278.536 347.556 277.787 349.222 278.548 350.282C279.308 351.343 281.308 351.448 282.993 350.469L381.88 293.595C383.565 292.628 384.29 290.985 383.53 289.913C382.77 288.841 380.793 288.76 379.108 289.727Z"
        fill="#455A64" />
    <path
        d="M387.742 301.157L288.842 358.019C287.169 358.986 286.503 360.606 287.345 361.62C288.187 362.634 290.258 362.68 291.942 361.713L390.842 304.816C392.514 303.849 393.181 302.253 392.316 301.239C391.45 300.225 389.426 300.155 387.742 301.157Z"
        fill="#455A64" />
    <path
        d="M397.276 312.04L298.411 368.902C296.727 369.869 296.072 371.454 297.054 372.398C298.037 373.342 300.119 373.365 301.792 372.398L400.692 315.524C402.376 314.557 402.961 312.996 402.025 312.029C401.089 311.062 398.984 311.085 397.276 312.04Z"
        fill="#455A64" />
    <path
        d="M407.805 322.445L308.905 379.307C307.232 380.275 306.683 381.824 307.735 382.745C308.788 383.665 310.941 383.63 312.625 382.663L411.443 325.79C413.116 324.822 413.642 323.308 412.613 322.376C411.583 321.443 409.442 321.478 407.805 322.445Z"
        fill="#455A64" />
    <path
        d="M292.059 208.617L245.406 235.417C245.92 252.254 247.851 276.537 254.916 300.994L301.582 274.195C294.504 249.737 292.574 225.442 292.059 208.617Z"
        fill="url(#paint10_linear_12_2881)" />
    <path opacity="0.8"
        d="M292.059 208.617L245.406 235.417C245.92 252.254 247.851 276.537 254.916 300.994L301.582 274.195C294.504 249.737 292.574 225.442 292.059 208.617Z"
        fill="white" />
    <path
        d="M264.427 231.711C264.49 230.625 264.32 229.537 263.929 228.52C263.538 227.504 262.934 226.582 262.158 225.815L245.406 235.44C245.546 239.891 245.78 244.866 246.189 250.226C248.368 250.476 250.573 250.07 252.518 249.061C259.104 246.055 264.427 238.26 264.427 231.711Z"
        fill="url(#paint11_linear_12_2881)" />
    <path opacity="0.6"
        d="M264.427 231.711C264.49 230.625 264.32 229.537 263.929 228.52C263.538 227.504 262.934 226.582 262.158 225.815L245.406 235.44C245.546 239.891 245.78 244.866 246.189 250.226C248.368 250.476 250.573 250.07 252.518 249.061C259.104 246.055 264.427 238.26 264.427 231.711Z"
        fill="white" />
    <path
        d="M297.616 258.115C294.504 254.211 288.175 242.152 285.473 236.896C285.367 236.689 285.201 236.518 284.996 236.405C284.791 236.292 284.557 236.244 284.324 236.265C284.091 236.286 283.869 236.377 283.688 236.525C283.508 236.672 283.375 236.871 283.309 237.095C280.385 247.048 278.688 257.319 278.255 267.681C274.359 264.6 271.01 260.89 268.347 256.705C268.233 256.543 268.075 256.416 267.892 256.34C267.709 256.265 267.507 256.243 267.312 256.277C267.116 256.311 266.935 256.4 266.789 256.534C266.642 256.668 266.538 256.84 266.486 257.031C261.386 276.595 263.948 295.844 263.948 295.844L301.582 274.195C300.014 268.788 298.716 263.405 297.616 258.115Z"
        fill="url(#paint12_linear_12_2881)" />
    <path opacity="0.6"
        d="M297.616 258.115C294.504 254.211 288.175 242.152 285.473 236.896C285.367 236.689 285.201 236.518 284.996 236.405C284.791 236.292 284.557 236.244 284.324 236.265C284.091 236.286 283.869 236.377 283.688 236.525C283.508 236.672 283.375 236.871 283.309 237.095C280.385 247.048 278.688 257.319 278.255 267.681C274.359 264.6 271.01 260.89 268.347 256.705C268.233 256.543 268.075 256.416 267.892 256.34C267.709 256.265 267.507 256.243 267.312 256.277C267.116 256.311 266.935 256.4 266.789 256.534C266.642 256.668 266.538 256.84 266.486 257.031C261.386 276.595 263.948 295.844 263.948 295.844L301.582 274.195C300.014 268.788 298.716 263.405 297.616 258.115Z"
        fill="white" />
    <defs>
        <linearGradient id="paint0_linear_12_2881" x1="124.256" y1="19.8839" x2="421.118" y2="306.49"
            gradientUnits="userSpaceOnUse">
            <stop stop-color="#2C2949" />
            <stop offset="1" stop-color="#201E34" />
        </linearGradient>
        <linearGradient id="paint1_linear_12_2881" x1="124.256" y1="22.979" x2="417.955" y2="331.44"
            gradientUnits="userSpaceOnUse">
            <stop stop-color="#2C2949" />
            <stop offset="1" stop-color="#201E34" />
        </linearGradient>
        <linearGradient id="paint2_linear_12_2881" x1="152.765" y1="36.2769" x2="449.64" y2="322.883"
            gradientUnits="userSpaceOnUse">
            <stop stop-color="#2C2949" />
            <stop offset="1" stop-color="#201E34" />
        </linearGradient>
        <linearGradient id="paint3_linear_12_2881" x1="152.765" y1="39.3719" x2="446.477" y2="347.834"
            gradientUnits="userSpaceOnUse">
            <stop stop-color="#2C2949" />
            <stop offset="1" stop-color="#201E34" />
        </linearGradient>
        <linearGradient id="paint4_linear_12_2881" x1="186.024" y1="55.411" x2="482.886" y2="342.017"
            gradientUnits="userSpaceOnUse">
            <stop stop-color="#2C2949" />
            <stop offset="1" stop-color="#201E34" />
        </linearGradient>
        <linearGradient id="paint5_linear_12_2881" x1="238.305" y1="-31.7641" x2="492.532" y2="177.6"
            gradientUnits="userSpaceOnUse">
            <stop stop-color="#2C2949" />
            <stop offset="1" stop-color="#201E34" />
        </linearGradient>
        <linearGradient id="paint6_linear_12_2881" x1="252.553" y1="48.242" x2="340.753" y2="120.298"
            gradientUnits="userSpaceOnUse">
            <stop stop-color="#2C2949" />
            <stop offset="1" stop-color="#201E34" />
        </linearGradient>
        <linearGradient id="paint7_linear_12_2881" x1="186.024" y1="77.1158" x2="456.472" y2="408.5"
            gradientUnits="userSpaceOnUse">
            <stop stop-color="#2C2949" />
            <stop offset="1" stop-color="#201E34" />
        </linearGradient>
        <linearGradient id="paint8_linear_12_2881" x1="231.367" y1="186.583" x2="340.899" y2="236.596"
            gradientUnits="userSpaceOnUse">
            <stop stop-color="#2C2949" />
            <stop offset="1" stop-color="#201E34" />
        </linearGradient>
        <linearGradient id="paint9_linear_12_2881" x1="233.496" y1="118.45" x2="503.661" y2="431.344"
            gradientUnits="userSpaceOnUse">
            <stop stop-color="#2C2949" />
            <stop offset="1" stop-color="#201E34" />
        </linearGradient>
        <linearGradient id="paint10_linear_12_2881" x1="245.406" y1="196.134" x2="345.643" y2="282.038"
            gradientUnits="userSpaceOnUse">
            <stop stop-color="#2C2949" />
            <stop offset="1" stop-color="#201E34" />
        </linearGradient>
        <linearGradient id="paint11_linear_12_2881" x1="245.406" y1="222.507" x2="272.177" y2="251.839"
            gradientUnits="userSpaceOnUse">
            <stop stop-color="#2C2949" />
            <stop offset="1" stop-color="#201E34" />
        </linearGradient>
        <linearGradient id="paint12_linear_12_2881" x1="263.304" y1="228.208" x2="328.408" y2="287.149"
            gradientUnits="userSpaceOnUse">
            <stop stop-color="#2C2949" />
            <stop offset="1" stop-color="#201E34" />
        </linearGradient>
    </defs>
</svg>